PathFileType	4	(X/Y/Z)	Demo_0-100.trc
DataRate	CameraRate	NumFrames	NumMarkers	Units	OrigDataRate	OrigDataStartFrame	OrigNumFrames
60	60	8	21	m	60	25	100
Frame#	Time	RHip			RKnee			RAnkle			RBigToe			RSmallToe			RHeel			LHip			LKnee			LAnkle			LBigToe			LSmallToe			LHeel			Neck			Head			Nose			RShoulder			RElbow			RWrist			LShoulder			LElbow			LWrist		
		X1	Y1	Z1	X2	Y2	Z2	X3	Y3	Z3	X4	Y4	Z4	X5	Y5	Z5	X6	Y6	Z6	X7	Y7	Z7	X8	Y8	Z8	X9	Y9	Z9	X10	Y10	Z10	X11	Y11	Z11	X12	Y12	Z12	X13	Y13	Z13	X14	Y14	Z14	X15	Y15	Z15	X16	Y16	Z16	X17	Y17	Z17	X18	Y18	Z18	X19	Y19	Z19	X20	Y20	Z20	X21	Y21	Z21
26	0.4333333333333333	-0.16550268830262785	0.9498105197059807	-1.2003209919118734	-0.3751501772756496	0.6147348922124197	-1.063633872061759	-0.34200218651557535	0.24259993366103522	-1.2777090719754438	-0.3801610377636155	0.14252487693526306	-1.1334503579190724	-0.42157684378234567	0.1490197590104368	-1.1755285644106568	-0.3160499713008529	0.21557303681058124	-1.3166505742563024	0.02549873097762447	0.8762830252201073	-1.1727261983639865	-0.061149825388912164	0.5279435262093933	-0.9498483465768179	-0.013234766119063051	0.14631822631036087	-1.1563806465179034	-0.00930790723095267	0.08158196632109913	-0.9960721533400847	0.02428381308061941	0.08178812118382674	-1.0362351290717937	-0.0052263566765378714	0.11517286487215608	-1.21274276453412	0.18716793011034405	1.3949653429787092	-1.1424996649384083	0.2750518846948281	1.6077258145918176	-0.9934804932622104	0.21390214689034945	1.4775769920287019	-0.9592296147934749	0.02451382958329285	1.4322259945917746	-1.1808002337234247	-0.20890074201589182	1.3879759275080545	-1.2279475382170812	-0.3534484416345282	1.478214505316964	-1.0820197710843817	0.308016685182771	1.2686990630018113	-1.1510183854912235	0.34220216765441697	0.9832523635919622	-1.1434926204484388	0.3349824862483576	0.7313900660475611	-1.0890030615661532
27	0.45	-0.1692285906719539	0.9499206115896183	-1.1953334855696915	-0.38768683642599655	0.6214344105535407	-1.0553193852184473	-0.3801525923023058	0.2427152469701729	-1.25387395295664	-0.41894125757284817	0.14731680655465176	-1.1080432212733875	-0.46077798880094983	0.15369087031495757	-1.1506921272747241	-0.3577973825620641	0.21526906333613752	-1.2919484419210512	0.02489300582431807	0.8747972183241135	-1.1604140054757348	-0.06148720962606934	0.5289605210126169	-0.9400369083414268	-0.012015141976125658	0.14638612879120083	-1.1551684701013072	-0.010302725999369784	0.08005190689909393	-0.9956464484141911	0.023607190604035162	0.08085203061893245	-1.0338482142813878	-0.004391583290846766	0.11458542147224109	-1.2115735729744483	0.19276481676911453	1.3885895259952692	-1.1360117147994908	0.28750531453350525	1.6040242439721741	-0.9793248846085161	0.21978808677674389	1.473936032595071	-0.9516888126371171	0.03132949470084523	1.4301201556740917	-1.167527950073826	-0.20457211282576196	1.394611295278559	-1.2225761452870465	-0.3472856580041395	1.4879292785310017	-1.0821910428431871	0.31120093877914107	1.2619793735234455	-1.145928567953814	0.3394901427911887	0.9772065672226905	-1.1388054705623691	0.3328678478360819	0.7223771831013663	-1.0749024934810942
28	0.4666666666666667	-0.17220721227509608	0.9511147769587118	-1.1858394140002044	-0.399761374755237	0.6271489816056319	-1.0476089294039856	-0.41795185833573045	0.24582960167126505	-1.2303459576733937	-0.4578708947588279	0.15486485626266974	-1.082427910374431	-0.49873510505014435	0.16070427042743446	-1.1288774853459946	-0.39918925506068337	0.21728366709104346	-1.2695168878446221	0.023041966510274854	0.8737013800574613	-1.1513164778229161	-0.062057944619313014	0.5281071774692847	-0.933733770844139	-0.01130887232164006	0.14543167067115775	-1.154479884591467	-0.01115863697035817	0.07901991126483898	-0.9953786711265037	0.022898008003659435	0.07987056998691965	-1.0320757918960086	-0.0037334675163482904	0.11299556864562459	-1.2104025790482384	0.19793611027830132	1.3821989529128946	-1.1288788290773615	0.2992195520955285	1.5999051571624172	-0.9666031860127513	0.22515517394017254	1.4698279959687135	-0.9452296923270671	0.03815843087454363	1.4277543122694445	-1.1550464727804017	-0.20044354554191868	1.4018194698122968	-1.2170294134952733	-0.3409253486664005	1.4974885940470628	-1.0813714900087845	0.31408837128884	1.2552773251295968	-1.141805607013806	0.33702794565489486	0.9707987899864224	-1.134100673304955	0.33140169254863255	0.715269686590745	-1.061769604049865
29	0.4833333333333333	-0.17438549991499616	0.9534816411591276	-1.1722212358491673	-0.4116292758409577	0.632713836818449	-1.0394885167200365	-0.4540534537926984	0.2513706709814568	-1.2080908991183474	-0.49513328402612605	0.16524330172417256	-1.0580146774325923	-0.5343754956239649	0.17006268299957816	-1.109770746131554	-0.4393675644693804	0.22156993095420524	-1.2491929277588394	0.020275424566475398	0.8728784843978026	-1.1453990971181602	-0.06302240618134627	0.5259275056980355	-0.9299797838438664	-0.011244961475174809	0.14399556627838292	-1.1542532423245413	-0.011677868463193773	0.07834963060538383	-0.9955992150207831	0.02243495603834037	0.0790285050062306	-1.031015140460338	-0.0034751061349459636	0.11103692322307322	-1.209201278809181	0.2025958994881845	1.3759965272057342	-1.1212523444188978	0.3098088061613678	1.5948064992193196	-0.9561358167300672	0.230692229068639	1.464561499389152	-0.9392537257002003	0.04468894716728409	1.4252172716662153	-1.1437554350253378	-0.19633817865683703	1.409052742624479	-1.2114349666781914	-0.3344605925100248	1.507263284113847	-1.0796442604147591	0.3168219808223695	1.2485808547534702	-1.138292982282328	0.33566296815720537	0.9639993890313207	-1.1287070244117454	0.33048962808809024	0.7100100989433135	-1.0493310435247891
30	0.5	-0.17616706514134178	0.9564401793810295	-1.1569712870343716	-0.4232975896830487	0.6386812774831	-1.030922457287346	-0.48762232752232376	0.2588057754620611	-1.1872662116457067	-0.5291011309914728	0.17724381521200736	-1.0370447431862977	-0.5669083224350545	0.18160791738868526	-1.0925940988317198	-0.47730821651149424	0.22771880525020155	-1.2306310044722517	0.016919270901108136	0.8720545447747802	-1.1417904241112808	-0.06415224087635081	0.5229506522174758	-0.9277834450804232	-0.011680026639808948	0.1426265862281444	-1.1545286526790512	-0.011760662581373914	0.07787362650893298	-0.9964061221870085	0.022310301622193086	0.07848847231492243	-1.0306010738214244	-0.0036248983373178326	0.10923757568801747	-1.2081752976812359	0.20676302707081062	1.3702374256563954	-1.1134862390666027	0.3194949138084543	1.5888948189762115	-0.9474313274988458	0.23705132130246837	1.4576432414383613	-0.9331986107301584	0.05049380488766261	1.422552597593487	-1.1343341982376378	-0.19242924999111768	1.4157791005899913	-1.2065043162347249	-0.3277138727180049	1.517480531712773	-1.0769290232666775	0.3195009773741981	1.2419671959500729	-1.1348204439720277	0.33597097402570253	0.9568546355290547	-1.1223728354226197	0.33014610033681085	0.7061358155627792	-1.037382909238935
31	0.5166666666666667	-0.17813722978947405	0.9592799586083034	-1.1426283628984135	-0.4346561039215011	0.645022008174775	-1.0231302543799075	-0.5183844708113974	0.26768621218202454	-1.1677298253641553	-0.5590804493920236	0.1891208392595802	-1.0213502190257764	-0.5962710868325498	0.1948257043376767	-1.0765565512867992	-0.5121978166286739	0.2353233888357162	-1.2133965860336022	0.013459300331265012	0.870941974722134	-1.1387176626982123	-0.06492292824169531	0.5196103362794935	-0.9262417867081927	-0.012340568935708	0.14164048910446655	-1.1553029456801043	-0.01135296171040618	0.07744452774824875	-0.9976315743642294	0.0224700361182733	0.07830671161234631	-1.0307659415627128	-0.004000087211861312	0.10790882229391724	-1.2075982273902415	0.21043967850785741	1.3650921352697463	-1.1058256325053282	0.32869937296589147	1.5825320724313645	-0.9397139870882172	0.24461453951269646	1.449016683593477	-0.9268661041284753	0.055205581149298515	1.4198318601802153	-1.1275739812573096	-0.1891702509523743	1.421629455919092	-1.2034073879720513	-0.32041046807744444	1.5282373078322269	-1.0729328841722836	0.32213646361426207	1.23558264864564	-1.1308423609432312	0.33798773468893684	0.9494069775151456	-1.115465795356676	0.3304031534154926	0.7029397207810579	-1.0260999875194807
32	0.5333333333333333	-0.18063742453722267	0.9616330360010504	-1.130510540138291	-0.445554746548859	0.6512238397731714	-1.017718988674522	-0.546377504443311	0.2774322177802655	-1.1496232657816958	-0.5856098628833625	0.199672826126142	-1.0111359106370832	-0.6229828372020325	0.20882844567212303	-1.0612819622481167	-0.5437946253764622	0.24409141003860244	-1.196979500263285	0.0103625158495278	0.8694229673608412	-1.1342696441625244	-0.06483321421547408	0.5163050073056561	-0.9246810703148163	-0.012962457004021448	0.1410396028463728	-1.1562904995395937	-0.010467030485478451	0.07696405510112957	-0.9990511948423826	0.022759151949841034	0.07840822763683708	-1.0313997330472466	-0.004370766194689531	0.10716605028734924	-1.207637766161146	0.2136152237785324	1.3605002807816189	-1.0983117669035205	0.3376620182277017	1.5757129194467092	-0.9328299365373378	0.2535524222576034	1.439142255606936	-0.9207562135313564	0.05874735971381913	1.4171583110807304	-1.1240178139533266	-0.18699418116771127	1.4264669623490422	-1.2028670159339627	-0.31234310603620824	1.5394539318044393	-1.0675455867644197	0.32468724659718345	1.2295745225282937	-1.125908811634293	0.3412013870523464	0.9417705820384757	-1.1089635843047647	0.33126598894029385	0.6995496659692088	-1.0161237430943897
33	0.55	-0.1836728131447684	0.9634299681223784	-1.1209796534750218	-0.4558967612832968	0.6567633303395477	-1.0152356897786206	-0.5718988855142102	0.2875007149664766	-1.1332121236653045	-0.6101042929378647	0.20933907558628828	-1.003981686011523	-0.6477978675120395	0.22273201357442118	-1.0467954263297592	-0.5723392612162478	0.25373601349038344	-1.1809134909476289	0.0077803058492635895	0.8675718454941206	-1.1274180257350495	-0.06379494866163879	0.5133376119284316	-0.922821692964788	-0.013415210938897908	0.14066962770856395	-1.1570045138228746	-0.009308508390104827	0.07638850439280755	-1.0004826055750327	0.022945386608837704	0.07862695255213116	-1.0323319411461982	-0.004671026804632846	0.10701604636192151	-1.2082397279292147	0.21638132070923644	1.3562001053307262	-1.0909840970632876	0.34639330443812116	1.568189819907681	-0.926912361604912	0.2638518312353467	1.4287964134439946	-0.9157490185776078	0.061367325493049206	1.4146183717991387	-1.123647458309927	-0.18599718591288902	1.4303725693494729	-1.204671680511918	-0.3034590807828415	1.5509531155725147	-1.0610635543432771	0.3271493609033501	1.2240616400082809	-1.1196482188983294	0.3449864284418125	0.9342085517170501	-1.1039338503030782	0.332691183785377	0.6951286437598699	-1.0083844160652358
